<?xml version="1.0" encoding="utf-8"?><svg xml:space="preserve" viewBox="0 0 100 100" y="0" x="0" xmlns="http://www.w3.org/2000/svg" id="圖層_1" version="1.1" width="200px" height="200px" xmlns:xlink="http://www.w3.org/1999/xlink" style="width:100%;height:100%;background-size:initial;background-repeat-y:initial;background-repeat-x:initial;background-position-y:initial;background-position-x:initial;background-origin:initial;background-image:initial;background-color:rgb(255, 255, 255);background-clip:initial;background-attachment:initial;animation-play-state:paused" ><g class="ldl-scale" style="transform-origin:50% 50%;transform:rotate(0deg) scale(0.8, 0.8);animation-play-state:paused" ><path fill="#333" d="M29.1 72.3h-5.9c-1.9 0-3.5 1.2-3.5 2.6v15c0 1.5 1.6 2.6 3.5 2.6h5.9c1.9 0 3.5-1.2 3.5-2.6v-15c0-1.4-1.6-2.6-3.5-2.6z" style="fill:rgb(255, 254, 254);animation-play-state:paused" ></path>
<path fill="#333" d="M70.4 72.3h5.9c1.9 0 3.5 1.2 3.5 2.6v15c0 1.5-1.6 2.6-3.5 2.6h-5.9c-1.9 0-3.5-1.2-3.5-2.6v-15c0-1.4 1.6-2.6 3.5-2.6z" style="fill:rgb(255, 254, 254);animation-play-state:paused" ></path>
<path fill="#333" d="M80.1 80H19.9c-1.4 0-2.5-1.1-2.5-2.5V60.7c0-3.3 2.6-5.9 5.9-5.9h53.4c3.3 0 5.9 2.6 5.9 5.9v16.8c0 1.3-1.1 2.5-2.5 2.5z" style="fill:rgb(255, 254, 254);animation-play-state:paused" ></path>
<path fill="#333" d="M64.6 19.4H35.4c-5.5 0-9.9 4.4-9.9 9.9v26.8h48.9V29.3c0-5.5-4.4-9.9-9.8-9.9z" style="fill:rgb(255, 254, 254);animation-play-state:paused" ></path>
<path fill="#fff" d="M68.2 27.3H31.8c-1.2 0-2.2 1-2.2 2.2v8.9c0 1.2 1 2.2 2.2 2.2h36.3c1.2 0 2.2-1 2.2-2.2v-8.9c.1-1.2-.9-2.2-2.1-2.2z" style="animation-play-state:paused" ></path>
<path d="M37.8 71.6h24.4" stroke-miterlimit="10" stroke-linecap="round" stroke-width="1.754" stroke="#fff" fill="none" style="stroke:rgb(0, 0, 0);animation-play-state:paused" ></path>
<path d="M37.8 66.7h24.4" stroke-miterlimit="10" stroke-linecap="round" stroke-width="1.754" stroke="#fff" fill="none" style="stroke:rgb(0, 0, 0);animation-play-state:paused" ></path>
<path d="M37.8 61.8h24.4" stroke-miterlimit="10" stroke-linecap="round" stroke-width="1.754" stroke="#fff" fill="none" style="stroke:rgb(0, 0, 0);animation-play-state:paused" ></path>
<path d="M37.8 56.9h24.4" stroke-miterlimit="10" stroke-linecap="round" stroke-width="1.754" stroke="#fff" fill="none" style="stroke:rgb(0, 0, 0);animation-play-state:paused" ></path>
<path d="M37.8 52h24.4" stroke-miterlimit="10" stroke-linecap="round" stroke-width="1.754" stroke="#fff" fill="none" style="stroke:rgb(0, 0, 0);animation-play-state:paused" ></path>
<path fill="#333" d="M83.7 82.4H16.3c-1 0-1.9-.8-1.9-1.9v-3.7c0-1 .8-1.9 1.9-1.9h67.4c1 0 1.9.8 1.9 1.9v3.7c-.1 1.1-.9 1.9-1.9 1.9z" style="fill:rgb(255, 254, 254);animation-play-state:paused" ></path>
<path fill="#fff" d="M28.7 73.5H22c-.8 0-1.5-.7-1.5-1.5v-2.3c0-.8.7-1.5 1.5-1.5h6.7c.8 0 1.5.7 1.5 1.5V72c0 .8-.6 1.5-1.5 1.5z" style="animation-play-state:paused" ></path>
<path fill="#fff" d="M70.9 73.5h6.7c.8 0 1.5-.7 1.5-1.5v-2.3c0-.8-.7-1.5-1.5-1.5h-6.7c-.8 0-1.5.7-1.5 1.5V72c0 .8.6 1.5 1.5 1.5z" style="animation-play-state:paused" ></path>
<path fill="#333" d="M28.2 55.1h-4.7V11.7c0-.2.1-.4.2-.6l2.9-3.3c.5-.6 1.6-.2 1.6.6v46.7z" style="fill:rgb(255, 254, 254);animation-play-state:paused" ></path>
<path fill="#333" d="M71.4 55.1h4.7V11.7c0-.2-.1-.4-.2-.6L73 7.8c-.5-.6-1.6-.2-1.6.6v46.7z" style="fill:rgb(255, 254, 254);animation-play-state:paused" ></path>
<path fill="#333" d="M82.6 40.1h-4.1c-.6 0-1.1-.5-1.1-1.1v-8.8c0-.6.5-1.1 1.1-1.1h4.1c.6 0 1.1.5 1.1 1.1V39c0 .6-.5 1.1-1.1 1.1z" style="fill:rgb(255, 254, 254);animation-play-state:paused" ></path>
<path stroke-miterlimit="10" stroke-width="1.63" stroke="#333" fill="none" d="M73.7 26.1h4.6c1.2 0 2.3 1 2.3 2.3v12.3c0 1.2-1 2.3-2.3 2.3h-4.1" style="stroke:rgb(255, 254, 254);animation-play-state:paused" ></path>
<path fill="#333" d="M16.9 40.1H21c.6 0 1.1-.5 1.1-1.1v-8.8c0-.6-.5-1.1-1.1-1.1h-4.1c-.6 0-1.1.5-1.1 1.1V39c0 .6.5 1.1 1.1 1.1z" style="fill:rgb(255, 254, 254);animation-play-state:paused" ></path>
<path stroke-miterlimit="10" stroke-width="1.63" stroke="#333" fill="none" d="M25.7 26.1h-4.6c-1.2 0-2.3 1-2.3 2.3v12.3c0 1.2 1 2.3 2.3 2.3h4.1" style="stroke:rgb(255, 254, 254);animation-play-state:paused" ></path>
<metadata xmlns:d="https://loading.io/stock/" style="animation-play-state:paused" ><d:name style="animation-play-state:paused" >truck</d:name>
<d:tags style="animation-play-state:paused" >cargo,ship,wagon,bus,transformer,trailer truck,tractor,optimus prime,truck,transportation</d:tags>
<d:license style="animation-play-state:paused" >by</d:license>
<d:slug style="animation-play-state:paused" >2vddn7</d:slug></metadata></g></svg>